{
	"asset":{
		"generator":"Khronos glTF Blender I/O v4.3.47",
		"version":"2.0"
	},
	"scene":0,
	"scenes":[
		{
			"name":"Scene",
			"nodes":[
				6
			]
		}
	],
	"nodes":[
		{
			"mesh":0,
			"name":"Cube",
			"translation":[
				-1.5313576459884644,
				0.5635733008384705,
				-1.6876055002212524
			]
		},
		{
			"mesh":1,
			"name":"Sphere",
			"translation":[
				-8.829819679260254,
				1.0941487550735474,
				-2.641345739364624
			]
		},
		{
			"mesh":2,
			"name":"Sphere.001",
			"translation":[
				-10.060108184814453,
				1.0941487550735474,
				-10.22424602508545
			]
		},
		{
			"mesh":3,
			"name":"Sphere.002",
			"translation":[
				-12.68699836730957,
				1.0941487550735474,
				-10.22424602508545
			]
		},
		{
			"mesh":4,
			"name":"Sphere.003",
			"translation":[
				-15.34764289855957,
				1.0941487550735474,
				-10.22424602508545
			]
		},
		{
			"mesh":5,
			"name":"Wall",
			"translation":[
				-16.40806007385254,
				0.5321410298347473,
				0.49075543880462646
			]
		},
		{
			"children":[
				0,
				1,
				2,
				3,
				4,
				5
			],
			"mesh":6,
			"name":"StageMap"
		}
	],
	"materials":[
		{
			"doubleSided":true,
			"name":"Material",
			"normalTexture":{
				"index":0
			},
			"pbrMetallicRoughness":{
				"baseColorTexture":{
					"index":1
				},
				"metallicRoughnessTexture":{
					"index":2
				}
			}
		},
		{
			"doubleSided":true,
			"name":"Material.003",
			"pbrMetallicRoughness":{
				"baseColorFactor":[
					0.800000011920929,
					0.800000011920929,
					0.800000011920929,
					1
				],
				"roughnessFactor":0
			}
		},
		{
			"doubleSided":true,
			"name":"Material.006",
			"pbrMetallicRoughness":{
				"baseColorFactor":[
					0.800000011920929,
					0.800000011920929,
					0.800000011920929,
					1
				],
				"roughnessFactor":0.5
			}
		},
		{
			"doubleSided":true,
			"name":"Material.007",
			"pbrMetallicRoughness":{
				"baseColorFactor":[
					0.800000011920929,
					0.800000011920929,
					0.800000011920929,
					1
				]
			}
		},
		{
			"doubleSided":true,
			"name":"mat1",
			"normalTexture":{
				"index":3
			},
			"pbrMetallicRoughness":{
				"baseColorTexture":{
					"index":4
				},
				"metallicRoughnessTexture":{
					"index":5
				}
			}
		}
	],
	"meshes":[
		{
			"name":"obj1.001",
			"primitives":[
				{
					"attributes":{
						"POSITION":0,
						"NORMAL":1,
						"TEXCOORD_0":2
					},
					"indices":3,
					"material":0
				}
			]
		},
		{
			"name":"Sphere",
			"primitives":[
				{
					"attributes":{
						"POSITION":4,
						"NORMAL":5,
						"TEXCOORD_0":6
					},
					"indices":7,
					"material":0
				}
			]
		},
		{
			"name":"Sphere.001",
			"primitives":[
				{
					"attributes":{
						"POSITION":8,
						"NORMAL":9,
						"TEXCOORD_0":10
					},
					"indices":11,
					"material":1
				}
			]
		},
		{
			"name":"Sphere.002",
			"primitives":[
				{
					"attributes":{
						"POSITION":12,
						"NORMAL":13,
						"TEXCOORD_0":14
					},
					"indices":11,
					"material":2
				}
			]
		},
		{
			"name":"Sphere.003",
			"primitives":[
				{
					"attributes":{
						"POSITION":15,
						"NORMAL":16,
						"TEXCOORD_0":17
					},
					"indices":11,
					"material":3
				}
			]
		},
		{
			"name":"obj1.002",
			"primitives":[
				{
					"attributes":{
						"POSITION":18,
						"NORMAL":19,
						"TEXCOORD_0":20
					},
					"indices":21,
					"material":0
				}
			]
		},
		{
			"name":"obj1",
			"primitives":[
				{
					"attributes":{
						"POSITION":22,
						"NORMAL":23,
						"TEXCOORD_0":24,
						"COLOR_0":25,
						"COLOR_1":26
					},
					"indices":27,
					"material":4
				},
				{
					"attributes":{
						"POSITION":28,
						"NORMAL":29,
						"TEXCOORD_0":30,
						"COLOR_0":31,
						"COLOR_1":32
					},
					"indices":33,
					"material":0
				}
			]
		}
	],
	"textures":[
		{
			"sampler":0,
			"source":0
		},
		{
			"sampler":0,
			"source":1
		},
		{
			"sampler":0,
			"source":2
		},
		{
			"sampler":0,
			"source":3
		},
		{
			"sampler":0,
			"source":4
		},
		{
			"sampler":0,
			"source":5
		}
	],
	"images":[
		{
			"mimeType":"image/png",
			"name":"stone_normal",
			"uri":"stone_normal.png"
		},
		{
			"mimeType":"image/png",
			"name":"stone",
			"uri":"stone.png"
		},
		{
			"mimeType":"image/png",
			"name":"stone_roughnessMetallic",
			"uri":"stone_roughnessMetallic.png"
		},
		{
			"mimeType":"image/png",
			"name":"grs_normal",
			"uri":"grs_normal.png"
		},
		{
			"mimeType":"image/png",
			"name":"grs.png",
			"uri":"grs_png.png"
		},
		{
			"mimeType":"image/png",
			"name":"grs_roughnessMetallic",
			"uri":"grs_roughnessMetallic.png"
		}
	],
	"accessors":[
		{
			"bufferView":0,
			"componentType":5126,
			"count":24,
			"max":[
				0.5768927335739136,
				0.5768926739692688,
				0.5768929719924927
			],
			"min":[
				-0.5768924951553345,
				-0.5768927335739136,
				-0.5768927335739136
			],
			"type":"VEC3"
		},
		{
			"bufferView":1,
			"componentType":5126,
			"count":24,
			"type":"VEC3"
		},
		{
			"bufferView":2,
			"componentType":5126,
			"count":24,
			"type":"VEC2"
		},
		{
			"bufferView":3,
			"componentType":5123,
			"count":36,
			"type":"SCALAR"
		},
		{
			"bufferView":4,
			"componentType":5126,
			"count":1984,
			"max":[
				1.000000238418579,
				1,
				1.0000003576278687
			],
			"min":[
				-0.9999998211860657,
				-1,
				-1
			],
			"type":"VEC3"
		},
		{
			"bufferView":5,
			"componentType":5126,
			"count":1984,
			"type":"VEC3"
		},
		{
			"bufferView":6,
			"componentType":5126,
			"count":1984,
			"type":"VEC2"
		},
		{
			"bufferView":7,
			"componentType":5123,
			"count":2880,
			"type":"SCALAR"
		},
		{
			"bufferView":8,
			"componentType":5126,
			"count":559,
			"max":[
				1.000000238418579,
				1,
				1.0000003576278687
			],
			"min":[
				-0.9999998211860657,
				-1,
				-1
			],
			"type":"VEC3"
		},
		{
			"bufferView":9,
			"componentType":5126,
			"count":559,
			"type":"VEC3"
		},
		{
			"bufferView":10,
			"componentType":5126,
			"count":559,
			"type":"VEC2"
		},
		{
			"bufferView":11,
			"componentType":5123,
			"count":2880,
			"type":"SCALAR"
		},
		{
			"bufferView":12,
			"componentType":5126,
			"count":559,
			"max":[
				1.000000238418579,
				1,
				1.0000003576278687
			],
			"min":[
				-0.9999998211860657,
				-1,
				-1
			],
			"type":"VEC3"
		},
		{
			"bufferView":13,
			"componentType":5126,
			"count":559,
			"type":"VEC3"
		},
		{
			"bufferView":14,
			"componentType":5126,
			"count":559,
			"type":"VEC2"
		},
		{
			"bufferView":15,
			"componentType":5126,
			"count":559,
			"max":[
				1.000000238418579,
				1,
				1.0000003576278687
			],
			"min":[
				-0.9999998211860657,
				-1,
				-1
			],
			"type":"VEC3"
		},
		{
			"bufferView":16,
			"componentType":5126,
			"count":559,
			"type":"VEC3"
		},
		{
			"bufferView":17,
			"componentType":5126,
			"count":559,
			"type":"VEC2"
		},
		{
			"bufferView":18,
			"componentType":5126,
			"count":34,
			"max":[
				10.102182388305664,
				2.0272951126098633,
				0.5468654632568359
			],
			"min":[
				-4.547977447509766,
				-2.027294874191284,
				-0.5468664169311523
			],
			"type":"VEC3"
		},
		{
			"bufferView":19,
			"componentType":5126,
			"count":34,
			"type":"VEC3"
		},
		{
			"bufferView":20,
			"componentType":5126,
			"count":34,
			"type":"VEC2"
		},
		{
			"bufferView":21,
			"componentType":5123,
			"count":60,
			"type":"SCALAR"
		},
		{
			"bufferView":22,
			"componentType":5126,
			"count":8944,
			"max":[
				29.999971389770508,
				4.160206317901611,
				29.999971389770508
			],
			"min":[
				-29.999971389770508,
				-1.2048132419586182,
				-29.999971389770508
			],
			"type":"VEC3"
		},
		{
			"bufferView":23,
			"componentType":5126,
			"count":8944,
			"type":"VEC3"
		},
		{
			"bufferView":24,
			"componentType":5126,
			"count":8944,
			"type":"VEC2"
		},
		{
			"bufferView":25,
			"componentType":5121,
			"count":8944,
			"normalized":true,
			"type":"VEC4"
		},
		{
			"bufferView":26,
			"componentType":5123,
			"count":8944,
			"normalized":true,
			"type":"VEC4"
		},
		{
			"bufferView":27,
			"componentType":5123,
			"count":13416,
			"type":"SCALAR"
		},
		{
			"bufferView":28,
			"componentType":5126,
			"count":1056,
			"max":[
				29.999971389770508,
				3.7477684020996094,
				19.199981689453125
			],
			"min":[
				-29.999971389770508,
				-0.8501142263412476,
				-28.799972534179688
			],
			"type":"VEC3"
		},
		{
			"bufferView":29,
			"componentType":5126,
			"count":1056,
			"type":"VEC3"
		},
		{
			"bufferView":30,
			"componentType":5126,
			"count":1056,
			"type":"VEC2"
		},
		{
			"bufferView":31,
			"componentType":5121,
			"count":1056,
			"normalized":true,
			"type":"VEC4"
		},
		{
			"bufferView":32,
			"componentType":5123,
			"count":1056,
			"normalized":true,
			"type":"VEC4"
		},
		{
			"bufferView":33,
			"componentType":5123,
			"count":1584,
			"type":"SCALAR"
		}
	],
	"bufferViews":[
		{
			"buffer":0,
			"byteLength":288,
			"byteOffset":0,
			"target":34962
		},
		{
			"buffer":0,
			"byteLength":288,
			"byteOffset":288,
			"target":34962
		},
		{
			"buffer":0,
			"byteLength":192,
			"byteOffset":576,
			"target":34962
		},
		{
			"buffer":0,
			"byteLength":72,
			"byteOffset":768,
			"target":34963
		},
		{
			"buffer":0,
			"byteLength":23808,
			"byteOffset":840,
			"target":34962
		},
		{
			"buffer":0,
			"byteLength":23808,
			"byteOffset":24648,
			"target":34962
		},
		{
			"buffer":0,
			"byteLength":15872,
			"byteOffset":48456,
			"target":34962
		},
		{
			"buffer":0,
			"byteLength":5760,
			"byteOffset":64328,
			"target":34963
		},
		{
			"buffer":0,
			"byteLength":6708,
			"byteOffset":70088,
			"target":34962
		},
		{
			"buffer":0,
			"byteLength":6708,
			"byteOffset":76796,
			"target":34962
		},
		{
			"buffer":0,
			"byteLength":4472,
			"byteOffset":83504,
			"target":34962
		},
		{
			"buffer":0,
			"byteLength":5760,
			"byteOffset":87976,
			"target":34963
		},
		{
			"buffer":0,
			"byteLength":6708,
			"byteOffset":93736,
			"target":34962
		},
		{
			"buffer":0,
			"byteLength":6708,
			"byteOffset":100444,
			"target":34962
		},
		{
			"buffer":0,
			"byteLength":4472,
			"byteOffset":107152,
			"target":34962
		},
		{
			"buffer":0,
			"byteLength":6708,
			"byteOffset":111624,
			"target":34962
		},
		{
			"buffer":0,
			"byteLength":6708,
			"byteOffset":118332,
			"target":34962
		},
		{
			"buffer":0,
			"byteLength":4472,
			"byteOffset":125040,
			"target":34962
		},
		{
			"buffer":0,
			"byteLength":408,
			"byteOffset":129512,
			"target":34962
		},
		{
			"buffer":0,
			"byteLength":408,
			"byteOffset":129920,
			"target":34962
		},
		{
			"buffer":0,
			"byteLength":272,
			"byteOffset":130328,
			"target":34962
		},
		{
			"buffer":0,
			"byteLength":120,
			"byteOffset":130600,
			"target":34963
		},
		{
			"buffer":0,
			"byteLength":107328,
			"byteOffset":130720,
			"target":34962
		},
		{
			"buffer":0,
			"byteLength":107328,
			"byteOffset":238048,
			"target":34962
		},
		{
			"buffer":0,
			"byteLength":71552,
			"byteOffset":345376,
			"target":34962
		},
		{
			"buffer":0,
			"byteLength":35776,
			"byteOffset":416928,
			"target":34962
		},
		{
			"buffer":0,
			"byteLength":71552,
			"byteOffset":452704,
			"target":34962
		},
		{
			"buffer":0,
			"byteLength":26832,
			"byteOffset":524256,
			"target":34963
		},
		{
			"buffer":0,
			"byteLength":12672,
			"byteOffset":551088,
			"target":34962
		},
		{
			"buffer":0,
			"byteLength":12672,
			"byteOffset":563760,
			"target":34962
		},
		{
			"buffer":0,
			"byteLength":8448,
			"byteOffset":576432,
			"target":34962
		},
		{
			"buffer":0,
			"byteLength":4224,
			"byteOffset":584880,
			"target":34962
		},
		{
			"buffer":0,
			"byteLength":8448,
			"byteOffset":589104,
			"target":34962
		},
		{
			"buffer":0,
			"byteLength":3168,
			"byteOffset":597552,
			"target":34963
		}
	],
	"samplers":[
		{
			"magFilter":9729,
			"minFilter":9987
		}
	],
	"buffers":[
		{
			"byteLength":600720,
			"uri":"StageMap.bin"
		}
	]
}
