{
	"asset":{
		"generator":"Khronos glTF Blender I/O v4.1.63",
		"version":"2.0"
	},
	"scene":0,
	"scenes":[
		{
			"name":"Scene",
			"nodes":[
				11
			]
		}
	],
	"nodes":[
		{
			"name":"Blade.001",
			"rotation":[
				-1.3447733593352496e-08,
				-1.4626869493383765e-08,
				0.6922986507415771,
				0.7216111421585083
			],
			"translation":[
				-0.2568981945514679,
				0.9667616486549377,
				-0.3437998294830322
			]
		},
		{
			"name":"Blade",
			"rotation":[
				-1.3371002971496182e-08,
				-1.4553264371386376e-08,
				0.6922986507415771,
				0.7216111421585083
			],
			"translation":[
				-0.25652363896369934,
				0.9667460322380066,
				0.39695361256599426
			]
		},
		{
			"name":"Core.001",
			"rotation":[
				6.545520392364779e-08,
				4.082733795485183e-08,
				-0.7216111421585083,
				0.6922986507415771
			],
			"translation":[
				0.3803953230381012,
				0.691265344619751,
				0.33794572949409485
			]
		},
		{
			"name":"Core.002",
			"rotation":[
				-4.733841763027158e-07,
				-4.7659361257501587e-07,
				-0.7216110825538635,
				0.6922987103462219
			],
			"translation":[
				0.3986242115497589,
				0.6932461857795715,
				-0.3431539833545685
			]
		},
		{
			"children":[
				0,
				1,
				2,
				3
			],
			"name":"Core",
			"rotation":[
				1.0324924915039446e-08,
				1.0324924915039446e-08,
				-0.6922986507415771,
				0.7216111421585083
			],
			"translation":[
				-0.1878753900527954,
				-0.7859589457511902,
				0
			]
		},
		{
			"name":"neutral_bone",
			"rotation":[
				-0.7071067690849304,
				0,
				0,
				0.7071067690849304
			]
		},
		{
			"mesh":0,
			"name":"Blade",
			"skin":0
		},
		{
			"mesh":1,
			"name":"Blade.001",
			"skin":0
		},
		{
			"mesh":2,
			"name":"Blade.002",
			"skin":0
		},
		{
			"mesh":3,
			"name":"Blade.003",
			"skin":0
		},
		{
			"mesh":4,
			"name":"Core",
			"skin":0
		},
		{
			"children":[
				6,
				7,
				8,
				9,
				10,
				4,
				5
			],
			"name":"\u30a2\u30fc\u30de\u30c1\u30e5\u30a2"
		}
	],
	"animations":[
		{
			"channels":[
				{
					"sampler":0,
					"target":{
						"node":4,
						"path":"translation"
					}
				},
				{
					"sampler":1,
					"target":{
						"node":4,
						"path":"rotation"
					}
				},
				{
					"sampler":2,
					"target":{
						"node":4,
						"path":"scale"
					}
				},
				{
					"sampler":3,
					"target":{
						"node":0,
						"path":"translation"
					}
				},
				{
					"sampler":4,
					"target":{
						"node":0,
						"path":"rotation"
					}
				},
				{
					"sampler":5,
					"target":{
						"node":0,
						"path":"scale"
					}
				},
				{
					"sampler":6,
					"target":{
						"node":1,
						"path":"translation"
					}
				},
				{
					"sampler":7,
					"target":{
						"node":1,
						"path":"rotation"
					}
				},
				{
					"sampler":8,
					"target":{
						"node":1,
						"path":"scale"
					}
				},
				{
					"sampler":9,
					"target":{
						"node":2,
						"path":"translation"
					}
				},
				{
					"sampler":10,
					"target":{
						"node":2,
						"path":"rotation"
					}
				},
				{
					"sampler":11,
					"target":{
						"node":2,
						"path":"scale"
					}
				},
				{
					"sampler":12,
					"target":{
						"node":3,
						"path":"translation"
					}
				},
				{
					"sampler":13,
					"target":{
						"node":3,
						"path":"rotation"
					}
				},
				{
					"sampler":14,
					"target":{
						"node":3,
						"path":"scale"
					}
				}
			],
			"name":"Open",
			"samplers":[
				{
					"input":43,
					"interpolation":"STEP",
					"output":44
				},
				{
					"input":43,
					"interpolation":"STEP",
					"output":45
				},
				{
					"input":43,
					"interpolation":"STEP",
					"output":46
				},
				{
					"input":47,
					"interpolation":"LINEAR",
					"output":48
				},
				{
					"input":47,
					"interpolation":"LINEAR",
					"output":49
				},
				{
					"input":43,
					"interpolation":"STEP",
					"output":50
				},
				{
					"input":47,
					"interpolation":"LINEAR",
					"output":51
				},
				{
					"input":47,
					"interpolation":"LINEAR",
					"output":52
				},
				{
					"input":43,
					"interpolation":"STEP",
					"output":53
				},
				{
					"input":47,
					"interpolation":"LINEAR",
					"output":54
				},
				{
					"input":43,
					"interpolation":"STEP",
					"output":55
				},
				{
					"input":43,
					"interpolation":"STEP",
					"output":56
				},
				{
					"input":47,
					"interpolation":"LINEAR",
					"output":57
				},
				{
					"input":43,
					"interpolation":"STEP",
					"output":58
				},
				{
					"input":43,
					"interpolation":"STEP",
					"output":59
				}
			]
		},
		{
			"channels":[
				{
					"sampler":0,
					"target":{
						"node":4,
						"path":"translation"
					}
				},
				{
					"sampler":1,
					"target":{
						"node":4,
						"path":"rotation"
					}
				},
				{
					"sampler":2,
					"target":{
						"node":4,
						"path":"scale"
					}
				},
				{
					"sampler":3,
					"target":{
						"node":0,
						"path":"translation"
					}
				},
				{
					"sampler":4,
					"target":{
						"node":0,
						"path":"rotation"
					}
				},
				{
					"sampler":5,
					"target":{
						"node":0,
						"path":"scale"
					}
				},
				{
					"sampler":6,
					"target":{
						"node":1,
						"path":"translation"
					}
				},
				{
					"sampler":7,
					"target":{
						"node":1,
						"path":"rotation"
					}
				},
				{
					"sampler":8,
					"target":{
						"node":1,
						"path":"scale"
					}
				},
				{
					"sampler":9,
					"target":{
						"node":2,
						"path":"translation"
					}
				},
				{
					"sampler":10,
					"target":{
						"node":2,
						"path":"rotation"
					}
				},
				{
					"sampler":11,
					"target":{
						"node":2,
						"path":"scale"
					}
				},
				{
					"sampler":12,
					"target":{
						"node":3,
						"path":"translation"
					}
				},
				{
					"sampler":13,
					"target":{
						"node":3,
						"path":"rotation"
					}
				},
				{
					"sampler":14,
					"target":{
						"node":3,
						"path":"scale"
					}
				}
			],
			"name":"Close",
			"samplers":[
				{
					"input":60,
					"interpolation":"STEP",
					"output":61
				},
				{
					"input":60,
					"interpolation":"STEP",
					"output":62
				},
				{
					"input":60,
					"interpolation":"STEP",
					"output":63
				},
				{
					"input":64,
					"interpolation":"LINEAR",
					"output":65
				},
				{
					"input":64,
					"interpolation":"LINEAR",
					"output":66
				},
				{
					"input":60,
					"interpolation":"STEP",
					"output":67
				},
				{
					"input":64,
					"interpolation":"LINEAR",
					"output":68
				},
				{
					"input":64,
					"interpolation":"LINEAR",
					"output":69
				},
				{
					"input":60,
					"interpolation":"STEP",
					"output":70
				},
				{
					"input":64,
					"interpolation":"LINEAR",
					"output":71
				},
				{
					"input":60,
					"interpolation":"STEP",
					"output":72
				},
				{
					"input":60,
					"interpolation":"STEP",
					"output":73
				},
				{
					"input":64,
					"interpolation":"LINEAR",
					"output":74
				},
				{
					"input":60,
					"interpolation":"STEP",
					"output":75
				},
				{
					"input":60,
					"interpolation":"STEP",
					"output":76
				}
			]
		}
	],
	"materials":[
		{
			"doubleSided":true,
			"name":"blue_metal_plate",
			"normalTexture":{
				"index":0
			},
			"pbrMetallicRoughness":{
				"baseColorTexture":{
					"index":1
				},
				"metallicFactor":0,
				"metallicRoughnessTexture":{
					"index":2
				}
			}
		}
	],
	"meshes":[
		{
			"name":"Circle.003",
			"primitives":[
				{
					"attributes":{
						"POSITION":0,
						"NORMAL":1,
						"TEXCOORD_0":2,
						"JOINTS_0":3,
						"WEIGHTS_0":4
					},
					"indices":5,
					"material":0
				}
			]
		},
		{
			"name":"Circle.001",
			"primitives":[
				{
					"attributes":{
						"POSITION":7,
						"NORMAL":8,
						"TEXCOORD_0":9,
						"JOINTS_0":10,
						"WEIGHTS_0":11
					},
					"indices":12,
					"material":0
				},
				{
					"attributes":{
						"POSITION":13,
						"NORMAL":14,
						"TEXCOORD_0":15,
						"JOINTS_0":16,
						"WEIGHTS_0":17
					},
					"indices":18,
					"material":0
				}
			]
		},
		{
			"name":"Circle.004",
			"primitives":[
				{
					"attributes":{
						"POSITION":19,
						"NORMAL":20,
						"TEXCOORD_0":21,
						"JOINTS_0":22,
						"WEIGHTS_0":23
					},
					"indices":24,
					"material":0
				},
				{
					"attributes":{
						"POSITION":25,
						"NORMAL":26,
						"TEXCOORD_0":27,
						"JOINTS_0":28,
						"WEIGHTS_0":29
					},
					"indices":30,
					"material":0
				}
			]
		},
		{
			"name":"Circle.002",
			"primitives":[
				{
					"attributes":{
						"POSITION":31,
						"NORMAL":32,
						"TEXCOORD_0":33,
						"JOINTS_0":34,
						"WEIGHTS_0":35
					},
					"indices":36,
					"material":0
				}
			]
		},
		{
			"name":"core",
			"primitives":[
				{
					"attributes":{
						"POSITION":37,
						"NORMAL":38,
						"TEXCOORD_0":39,
						"JOINTS_0":40,
						"WEIGHTS_0":41
					},
					"indices":42,
					"material":0
				}
			]
		}
	],
	"textures":[
		{
			"sampler":0,
			"source":0
		},
		{
			"sampler":0,
			"source":1
		},
		{
			"sampler":0,
			"source":2
		}
	],
	"images":[
		{
			"mimeType":"image/png",
			"name":"blue_metal_plate_nor_gl_4k",
			"uri":"blue_metal_plate_nor_gl_4k.png"
		},
		{
			"mimeType":"image/png",
			"name":"Cast_Iron_Damaged_baseColor",
			"uri":"Cast_Iron_Damaged_baseColor.png"
		},
		{
			"mimeType":"image/png",
			"name":"blue_metal_plate_rough_4k",
			"uri":"blue_metal_plate_rough_4k.png"
		}
	],
	"skins":[
		{
			"inverseBindMatrices":6,
			"joints":[
				4,
				0,
				1,
				2,
				3,
				5
			],
			"name":"\u30a2\u30fc\u30de\u30c1\u30e5\u30a2"
		}
	],
	"accessors":[
		{
			"bufferView":0,
			"componentType":5126,
			"count":75,
			"max":[
				1.530747890472412,
				0.7546579837799072,
				0.4506160020828247
			],
			"min":[
				-2.954988718032837,
				-0.6743037104606628,
				0.31242209672927856
			],
			"type":"VEC3"
		},
		{
			"bufferView":1,
			"componentType":5126,
			"count":75,
			"type":"VEC3"
		},
		{
			"bufferView":2,
			"componentType":5126,
			"count":75,
			"type":"VEC2"
		},
		{
			"bufferView":3,
			"componentType":5121,
			"count":75,
			"type":"VEC4"
		},
		{
			"bufferView":4,
			"componentType":5126,
			"count":75,
			"type":"VEC4"
		},
		{
			"bufferView":5,
			"componentType":5123,
			"count":129,
			"type":"SCALAR"
		},
		{
			"bufferView":6,
			"componentType":5126,
			"count":6,
			"type":"MAT4"
		},
		{
			"bufferView":7,
			"componentType":5126,
			"count":17,
			"max":[
				1.5307480096817017,
				0.7546578645706177,
				-0.3004678189754486
			],
			"min":[
				-2.954988718032837,
				-0.6743037700653076,
				-0.30778002738952637
			],
			"type":"VEC3"
		},
		{
			"bufferView":8,
			"componentType":5126,
			"count":17,
			"type":"VEC3"
		},
		{
			"bufferView":9,
			"componentType":5126,
			"count":17,
			"type":"VEC2"
		},
		{
			"bufferView":10,
			"componentType":5121,
			"count":17,
			"type":"VEC4"
		},
		{
			"bufferView":11,
			"componentType":5126,
			"count":17,
			"type":"VEC4"
		},
		{
			"bufferView":12,
			"componentType":5123,
			"count":45,
			"type":"SCALAR"
		},
		{
			"bufferView":13,
			"componentType":5126,
			"count":64,
			"max":[
				1.5308563709259033,
				0.7546578645706177,
				-0.3004678189754486
			],
			"min":[
				-2.954988718032837,
				-0.6759941577911377,
				-0.41178515553474426
			],
			"type":"VEC3"
		},
		{
			"bufferView":14,
			"componentType":5126,
			"count":64,
			"type":"VEC3"
		},
		{
			"bufferView":15,
			"componentType":5126,
			"count":64,
			"type":"VEC2"
		},
		{
			"bufferView":16,
			"componentType":5121,
			"count":64,
			"type":"VEC4"
		},
		{
			"bufferView":17,
			"componentType":5126,
			"count":64,
			"type":"VEC4"
		},
		{
			"bufferView":18,
			"componentType":5123,
			"count":90,
			"type":"SCALAR"
		},
		{
			"bufferView":19,
			"componentType":5126,
			"count":5,
			"max":[
				0.17814725637435913,
				-1.5228869915008545,
				0.3037171959877014
			],
			"min":[
				-1.0453397035598755,
				-2.331317663192749,
				0.29958000779151917
			],
			"type":"VEC3"
		},
		{
			"bufferView":20,
			"componentType":5126,
			"count":5,
			"type":"VEC3"
		},
		{
			"bufferView":21,
			"componentType":5126,
			"count":5,
			"type":"VEC2"
		},
		{
			"bufferView":22,
			"componentType":5121,
			"count":5,
			"type":"VEC4"
		},
		{
			"bufferView":23,
			"componentType":5126,
			"count":5,
			"type":"VEC4"
		},
		{
			"bufferView":24,
			"componentType":5123,
			"count":9,
			"type":"SCALAR"
		},
		{
			"bufferView":25,
			"componentType":5126,
			"count":78,
			"max":[
				1.632448434829712,
				-0.9635919332504272,
				0.41892674565315247
			],
			"min":[
				-1.0453397035598755,
				-2.331317663192749,
				0.2967177927494049
			],
			"type":"VEC3"
		},
		{
			"bufferView":26,
			"componentType":5126,
			"count":78,
			"type":"VEC3"
		},
		{
			"bufferView":27,
			"componentType":5126,
			"count":78,
			"type":"VEC2"
		},
		{
			"bufferView":28,
			"componentType":5121,
			"count":78,
			"type":"VEC4"
		},
		{
			"bufferView":29,
			"componentType":5126,
			"count":78,
			"type":"VEC4"
		},
		{
			"bufferView":30,
			"componentType":5123,
			"count":114,
			"type":"SCALAR"
		},
		{
			"bufferView":31,
			"componentType":5126,
			"count":72,
			"max":[
				1.6322987079620361,
				-0.9635919332504272,
				-0.3164849579334259
			],
			"min":[
				-1.0360238552093506,
				-2.331317901611328,
				-0.43169474601745605
			],
			"type":"VEC3"
		},
		{
			"bufferView":32,
			"componentType":5126,
			"count":72,
			"type":"VEC3"
		},
		{
			"bufferView":33,
			"componentType":5126,
			"count":72,
			"type":"VEC2"
		},
		{
			"bufferView":34,
			"componentType":5121,
			"count":72,
			"type":"VEC4"
		},
		{
			"bufferView":35,
			"componentType":5126,
			"count":72,
			"type":"VEC4"
		},
		{
			"bufferView":36,
			"componentType":5123,
			"count":111,
			"type":"SCALAR"
		},
		{
			"bufferView":37,
			"componentType":5126,
			"count":457,
			"max":[
				1.9895466566085815,
				-0.37688228487968445,
				0.4947253167629242
			],
			"min":[
				-0.8669204115867615,
				-1.1642415523529053,
				-0.5052758455276489
			],
			"type":"VEC3"
		},
		{
			"bufferView":38,
			"componentType":5126,
			"count":457,
			"type":"VEC3"
		},
		{
			"bufferView":39,
			"componentType":5126,
			"count":457,
			"type":"VEC2"
		},
		{
			"bufferView":40,
			"componentType":5121,
			"count":457,
			"type":"VEC4"
		},
		{
			"bufferView":41,
			"componentType":5126,
			"count":457,
			"type":"VEC4"
		},
		{
			"bufferView":42,
			"componentType":5123,
			"count":738,
			"type":"SCALAR"
		},
		{
			"bufferView":43,
			"componentType":5126,
			"count":2,
			"max":[
				1.6666666666666667
			],
			"min":[
				0
			],
			"type":"SCALAR"
		},
		{
			"bufferView":44,
			"componentType":5126,
			"count":2,
			"type":"VEC3"
		},
		{
			"bufferView":45,
			"componentType":5126,
			"count":2,
			"type":"VEC4"
		},
		{
			"bufferView":46,
			"componentType":5126,
			"count":2,
			"type":"VEC3"
		},
		{
			"bufferView":47,
			"componentType":5126,
			"count":41,
			"max":[
				1.6666666666666667
			],
			"min":[
				0
			],
			"type":"SCALAR"
		},
		{
			"bufferView":48,
			"componentType":5126,
			"count":41,
			"type":"VEC3"
		},
		{
			"bufferView":49,
			"componentType":5126,
			"count":41,
			"type":"VEC4"
		},
		{
			"bufferView":50,
			"componentType":5126,
			"count":2,
			"type":"VEC3"
		},
		{
			"bufferView":51,
			"componentType":5126,
			"count":41,
			"type":"VEC3"
		},
		{
			"bufferView":52,
			"componentType":5126,
			"count":41,
			"type":"VEC4"
		},
		{
			"bufferView":53,
			"componentType":5126,
			"count":2,
			"type":"VEC3"
		},
		{
			"bufferView":54,
			"componentType":5126,
			"count":41,
			"type":"VEC3"
		},
		{
			"bufferView":55,
			"componentType":5126,
			"count":2,
			"type":"VEC4"
		},
		{
			"bufferView":56,
			"componentType":5126,
			"count":2,
			"type":"VEC3"
		},
		{
			"bufferView":57,
			"componentType":5126,
			"count":41,
			"type":"VEC3"
		},
		{
			"bufferView":58,
			"componentType":5126,
			"count":2,
			"type":"VEC4"
		},
		{
			"bufferView":59,
			"componentType":5126,
			"count":2,
			"type":"VEC3"
		},
		{
			"bufferView":60,
			"componentType":5126,
			"count":2,
			"max":[
				1.875
			],
			"min":[
				0
			],
			"type":"SCALAR"
		},
		{
			"bufferView":61,
			"componentType":5126,
			"count":2,
			"type":"VEC3"
		},
		{
			"bufferView":62,
			"componentType":5126,
			"count":2,
			"type":"VEC4"
		},
		{
			"bufferView":63,
			"componentType":5126,
			"count":2,
			"type":"VEC3"
		},
		{
			"bufferView":64,
			"componentType":5126,
			"count":46,
			"max":[
				1.875
			],
			"min":[
				0
			],
			"type":"SCALAR"
		},
		{
			"bufferView":65,
			"componentType":5126,
			"count":46,
			"type":"VEC3"
		},
		{
			"bufferView":66,
			"componentType":5126,
			"count":46,
			"type":"VEC4"
		},
		{
			"bufferView":67,
			"componentType":5126,
			"count":2,
			"type":"VEC3"
		},
		{
			"bufferView":68,
			"componentType":5126,
			"count":46,
			"type":"VEC3"
		},
		{
			"bufferView":69,
			"componentType":5126,
			"count":46,
			"type":"VEC4"
		},
		{
			"bufferView":70,
			"componentType":5126,
			"count":2,
			"type":"VEC3"
		},
		{
			"bufferView":71,
			"componentType":5126,
			"count":46,
			"type":"VEC3"
		},
		{
			"bufferView":72,
			"componentType":5126,
			"count":2,
			"type":"VEC4"
		},
		{
			"bufferView":73,
			"componentType":5126,
			"count":2,
			"type":"VEC3"
		},
		{
			"bufferView":74,
			"componentType":5126,
			"count":46,
			"type":"VEC3"
		},
		{
			"bufferView":75,
			"componentType":5126,
			"count":2,
			"type":"VEC4"
		},
		{
			"bufferView":76,
			"componentType":5126,
			"count":2,
			"type":"VEC3"
		}
	],
	"bufferViews":[
		{
			"buffer":0,
			"byteLength":900,
			"byteOffset":0,
			"target":34962
		},
		{
			"buffer":0,
			"byteLength":900,
			"byteOffset":900,
			"target":34962
		},
		{
			"buffer":0,
			"byteLength":600,
			"byteOffset":1800,
			"target":34962
		},
		{
			"buffer":0,
			"byteLength":300,
			"byteOffset":2400,
			"target":34962
		},
		{
			"buffer":0,
			"byteLength":1200,
			"byteOffset":2700,
			"target":34962
		},
		{
			"buffer":0,
			"byteLength":258,
			"byteOffset":3900,
			"target":34963
		},
		{
			"buffer":0,
			"byteLength":384,
			"byteOffset":4160
		},
		{
			"buffer":0,
			"byteLength":204,
			"byteOffset":4544,
			"target":34962
		},
		{
			"buffer":0,
			"byteLength":204,
			"byteOffset":4748,
			"target":34962
		},
		{
			"buffer":0,
			"byteLength":136,
			"byteOffset":4952,
			"target":34962
		},
		{
			"buffer":0,
			"byteLength":68,
			"byteOffset":5088,
			"target":34962
		},
		{
			"buffer":0,
			"byteLength":272,
			"byteOffset":5156,
			"target":34962
		},
		{
			"buffer":0,
			"byteLength":90,
			"byteOffset":5428,
			"target":34963
		},
		{
			"buffer":0,
			"byteLength":768,
			"byteOffset":5520,
			"target":34962
		},
		{
			"buffer":0,
			"byteLength":768,
			"byteOffset":6288,
			"target":34962
		},
		{
			"buffer":0,
			"byteLength":512,
			"byteOffset":7056,
			"target":34962
		},
		{
			"buffer":0,
			"byteLength":256,
			"byteOffset":7568,
			"target":34962
		},
		{
			"buffer":0,
			"byteLength":1024,
			"byteOffset":7824,
			"target":34962
		},
		{
			"buffer":0,
			"byteLength":180,
			"byteOffset":8848,
			"target":34963
		},
		{
			"buffer":0,
			"byteLength":60,
			"byteOffset":9028,
			"target":34962
		},
		{
			"buffer":0,
			"byteLength":60,
			"byteOffset":9088,
			"target":34962
		},
		{
			"buffer":0,
			"byteLength":40,
			"byteOffset":9148,
			"target":34962
		},
		{
			"buffer":0,
			"byteLength":20,
			"byteOffset":9188,
			"target":34962
		},
		{
			"buffer":0,
			"byteLength":80,
			"byteOffset":9208,
			"target":34962
		},
		{
			"buffer":0,
			"byteLength":18,
			"byteOffset":9288,
			"target":34963
		},
		{
			"buffer":0,
			"byteLength":936,
			"byteOffset":9308,
			"target":34962
		},
		{
			"buffer":0,
			"byteLength":936,
			"byteOffset":10244,
			"target":34962
		},
		{
			"buffer":0,
			"byteLength":624,
			"byteOffset":11180,
			"target":34962
		},
		{
			"buffer":0,
			"byteLength":312,
			"byteOffset":11804,
			"target":34962
		},
		{
			"buffer":0,
			"byteLength":1248,
			"byteOffset":12116,
			"target":34962
		},
		{
			"buffer":0,
			"byteLength":228,
			"byteOffset":13364,
			"target":34963
		},
		{
			"buffer":0,
			"byteLength":864,
			"byteOffset":13592,
			"target":34962
		},
		{
			"buffer":0,
			"byteLength":864,
			"byteOffset":14456,
			"target":34962
		},
		{
			"buffer":0,
			"byteLength":576,
			"byteOffset":15320,
			"target":34962
		},
		{
			"buffer":0,
			"byteLength":288,
			"byteOffset":15896,
			"target":34962
		},
		{
			"buffer":0,
			"byteLength":1152,
			"byteOffset":16184,
			"target":34962
		},
		{
			"buffer":0,
			"byteLength":222,
			"byteOffset":17336,
			"target":34963
		},
		{
			"buffer":0,
			"byteLength":5484,
			"byteOffset":17560,
			"target":34962
		},
		{
			"buffer":0,
			"byteLength":5484,
			"byteOffset":23044,
			"target":34962
		},
		{
			"buffer":0,
			"byteLength":3656,
			"byteOffset":28528,
			"target":34962
		},
		{
			"buffer":0,
			"byteLength":1828,
			"byteOffset":32184,
			"target":34962
		},
		{
			"buffer":0,
			"byteLength":7312,
			"byteOffset":34012,
			"target":34962
		},
		{
			"buffer":0,
			"byteLength":1476,
			"byteOffset":41324,
			"target":34963
		},
		{
			"buffer":0,
			"byteLength":8,
			"byteOffset":42800
		},
		{
			"buffer":0,
			"byteLength":24,
			"byteOffset":42808
		},
		{
			"buffer":0,
			"byteLength":32,
			"byteOffset":42832
		},
		{
			"buffer":0,
			"byteLength":24,
			"byteOffset":42864
		},
		{
			"buffer":0,
			"byteLength":164,
			"byteOffset":42888
		},
		{
			"buffer":0,
			"byteLength":492,
			"byteOffset":43052
		},
		{
			"buffer":0,
			"byteLength":656,
			"byteOffset":43544
		},
		{
			"buffer":0,
			"byteLength":24,
			"byteOffset":44200
		},
		{
			"buffer":0,
			"byteLength":492,
			"byteOffset":44224
		},
		{
			"buffer":0,
			"byteLength":656,
			"byteOffset":44716
		},
		{
			"buffer":0,
			"byteLength":24,
			"byteOffset":45372
		},
		{
			"buffer":0,
			"byteLength":492,
			"byteOffset":45396
		},
		{
			"buffer":0,
			"byteLength":32,
			"byteOffset":45888
		},
		{
			"buffer":0,
			"byteLength":24,
			"byteOffset":45920
		},
		{
			"buffer":0,
			"byteLength":492,
			"byteOffset":45944
		},
		{
			"buffer":0,
			"byteLength":32,
			"byteOffset":46436
		},
		{
			"buffer":0,
			"byteLength":24,
			"byteOffset":46468
		},
		{
			"buffer":0,
			"byteLength":8,
			"byteOffset":46492
		},
		{
			"buffer":0,
			"byteLength":24,
			"byteOffset":46500
		},
		{
			"buffer":0,
			"byteLength":32,
			"byteOffset":46524
		},
		{
			"buffer":0,
			"byteLength":24,
			"byteOffset":46556
		},
		{
			"buffer":0,
			"byteLength":184,
			"byteOffset":46580
		},
		{
			"buffer":0,
			"byteLength":552,
			"byteOffset":46764
		},
		{
			"buffer":0,
			"byteLength":736,
			"byteOffset":47316
		},
		{
			"buffer":0,
			"byteLength":24,
			"byteOffset":48052
		},
		{
			"buffer":0,
			"byteLength":552,
			"byteOffset":48076
		},
		{
			"buffer":0,
			"byteLength":736,
			"byteOffset":48628
		},
		{
			"buffer":0,
			"byteLength":24,
			"byteOffset":49364
		},
		{
			"buffer":0,
			"byteLength":552,
			"byteOffset":49388
		},
		{
			"buffer":0,
			"byteLength":32,
			"byteOffset":49940
		},
		{
			"buffer":0,
			"byteLength":24,
			"byteOffset":49972
		},
		{
			"buffer":0,
			"byteLength":552,
			"byteOffset":49996
		},
		{
			"buffer":0,
			"byteLength":32,
			"byteOffset":50548
		},
		{
			"buffer":0,
			"byteLength":24,
			"byteOffset":50580
		}
	],
	"samplers":[
		{
			"magFilter":9729,
			"minFilter":9987
		}
	],
	"buffers":[
		{
			"byteLength":50604,
			"uri":"Blade.bin"
		}
	]
}
